<svg xmlns="http://www.w3.org/2000/svg" width="1992.709pt" height="536.96777pt" version="1.0" viewBox="0 0 1992.709 536.96777"><g style="fill:#000;stroke:none"><path d="M762.059 75.945c-23.731 0-44.858 12.45-58.68 26.272L501.314 298.39v233c0 19.105 8.116 27.945 27.375 8.35l170.17-164.852v417.013h216.495V75.945Zm278.959 0v715.957h608.652c113.026-.87 186.489-91.093 191.139-178.26 3.682-69.039-31.858-151.621-115.641-188.193 148.557-98.823 93.484-338.7-100.863-349.504zm895.67 0v715.957h215.324V403.721l297.328 344.222c25.125 27.912 34.992 43.96 74.639 43.96h182.966V75.944h-215.498V463.75l-310.892-358.826c-12.537-14.52-29.335-28.979-59.725-28.979ZM50 75.947v715.955h216.492V374.89l170.17 164.851c19.26 19.596 27.377 10.758 27.377-8.347V298.39L261.973 102.217c-13.822-13.822-34.95-26.27-58.68-26.27Zm1206.598 150.33h253.125c27.104 0 54.111 30.245 53.502 58.737-.627 29.321-23.834 58.625-53.502 58.625h-253.125zm0 282.51h271.125c42.572 0 65.394 34.619 65.394 66.063 0 31.816-25.414 67.298-65.394 67.298h-271.125z" style="opacity:1;fill:#f60;fill-opacity:1;fill-rule:evenodd;stroke:none;stroke-width:1px;stroke-linecap:butt;stroke-linejoin:miter;stroke-opacity:1" transform="matrix(.75 0 0 .75 -37.5 -56.959)"/></g></svg>